<svg id="visual" viewBox="0 0 960 300" width="960" height="300" xmlns="http://www.w3.org/2000/svg" xmlns:xlink="http://www.w3.org/1999/xlink" version="1.1"><path d="M0 240L13.3 240.5C26.7 241 53.3 242 80 245.8C106.7 249.7 133.3 256.3 160 256.5C186.7 256.7 213.3 250.3 240 250.3C266.7 250.3 293.3 256.7 320 259.7C346.7 262.7 373.3 262.3 400 262.8C426.7 263.3 453.3 264.7 480 261C506.7 257.3 533.3 248.7 560 243.5C586.7 238.3 613.3 236.7 640 237.3C666.7 238 693.3 241 720 242.8C746.7 244.7 773.3 245.3 800 247.3C826.7 249.3 853.3 252.7 880 252.3C906.7 252 933.3 248 946.7 246L960 244L960 301L946.7 301C933.3 301 906.7 301 880 301C853.3 301 826.7 301 800 301C773.3 301 746.7 301 720 301C693.3 301 666.7 301 640 301C613.3 301 586.7 301 560 301C533.3 301 506.7 301 480 301C453.3 301 426.7 301 400 301C373.3 301 346.7 301 320 301C293.3 301 266.7 301 240 301C213.3 301 186.7 301 160 301C133.3 301 106.7 301 80 301C53.3 301 26.7 301 13.3 301L0 301Z" fill="#00a86b"></path><path d="M0 265L13.3 265.2C26.7 265.3 53.3 265.7 80 263C106.7 260.3 133.3 254.7 160 253.7C186.7 252.7 213.3 256.3 240 256.3C266.7 256.3 293.3 252.7 320 251.8C346.7 251 373.3 253 400 253.7C426.7 254.3 453.3 253.7 480 253.5C506.7 253.3 533.3 253.7 560 253.3C586.7 253 613.3 252 640 254C666.7 256 693.3 261 720 262C746.7 263 773.3 260 800 257.2C826.7 254.3 853.3 251.7 880 252.3C906.7 253 933.3 257 946.7 259L960 261L960 301L946.7 301C933.3 301 906.7 301 880 301C853.3 301 826.7 301 800 301C773.3 301 746.7 301 720 301C693.3 301 666.7 301 640 301C613.3 301 586.7 301 560 301C533.3 301 506.7 301 480 301C453.3 301 426.7 301 400 301C373.3 301 346.7 301 320 301C293.3 301 266.7 301 240 301C213.3 301 186.7 301 160 301C133.3 301 106.7 301 80 301C53.3 301 26.7 301 13.3 301L0 301Z" fill="#058654"></path><path d="M0 279L13.3 277.7C26.7 276.3 53.3 273.7 80 271.5C106.7 269.3 133.3 267.7 160 269.2C186.7 270.7 213.3 275.3 240 277.7C266.7 280 293.3 280 320 280.2C346.7 280.3 373.3 280.7 400 278.7C426.7 276.7 453.3 272.3 480 269.3C506.7 266.3 533.3 264.7 560 263.8C586.7 263 613.3 263 640 264.5C666.7 266 693.3 269 720 271.3C746.7 273.7 773.3 275.3 800 276.8C826.7 278.3 853.3 279.7 880 279C906.7 278.3 933.3 275.7 946.7 274.3L960 273L960 301L946.7 301C933.3 301 906.7 301 880 301C853.3 301 826.7 301 800 301C773.3 301 746.7 301 720 301C693.3 301 666.7 301 640 301C613.3 301 586.7 301 560 301C533.3 301 506.7 301 480 301C453.3 301 426.7 301 400 301C373.3 301 346.7 301 320 301C293.3 301 266.7 301 240 301C213.3 301 186.7 301 160 301C133.3 301 106.7 301 80 301C53.3 301 26.7 301 13.3 301L0 301Z" fill="#06663e"></path><path d="M0 278L13.3 278.8C26.7 279.7 53.3 281.3 80 282.8C106.7 284.3 133.3 285.7 160 285.7C186.7 285.7 213.3 284.3 240 282.7C266.7 281 293.3 279 320 278.2C346.7 277.3 373.3 277.7 400 277.7C426.7 277.7 453.3 277.3 480 276.8C506.7 276.3 533.3 275.7 560 276.8C586.7 278 613.3 281 640 282.5C666.7 284 693.3 284 720 284.3C746.7 284.7 773.3 285.3 800 284.8C826.7 284.3 853.3 282.7 880 280.8C906.7 279 933.3 277 946.7 276L960 275L960 301L946.7 301C933.3 301 906.7 301 880 301C853.3 301 826.7 301 800 301C773.3 301 746.7 301 720 301C693.3 301 666.7 301 640 301C613.3 301 586.7 301 560 301C533.3 301 506.7 301 480 301C453.3 301 426.7 301 400 301C373.3 301 346.7 301 320 301C293.3 301 266.7 301 240 301C213.3 301 186.7 301 160 301C133.3 301 106.7 301 80 301C53.3 301 26.7 301 13.3 301L0 301Z" fill="#05472a"></path></svg>