<svg id="visual" viewBox="0 0 960 300" width="960" height="300" xmlns="http://www.w3.org/2000/svg" xmlns:xlink="http://www.w3.org/1999/xlink" version="1.1"><path d="M0 238L13.3 240.8C26.7 243.7 53.3 249.3 80 250.8C106.7 252.3 133.3 249.7 160 249.3C186.7 249 213.3 251 240 250C266.7 249 293.3 245 320 242.3C346.7 239.7 373.3 238.3 400 237.5C426.7 236.7 453.3 236.3 480 237C506.7 237.7 533.3 239.3 560 242.3C586.7 245.3 613.3 249.7 640 250.2C666.7 250.7 693.3 247.3 720 246.5C746.7 245.7 773.3 247.3 800 251C826.7 254.7 853.3 260.3 880 262.3C906.7 264.3 933.3 262.7 946.7 261.8L960 261L960 301L946.7 301C933.3 301 906.7 301 880 301C853.3 301 826.7 301 800 301C773.3 301 746.7 301 720 301C693.3 301 666.7 301 640 301C613.3 301 586.7 301 560 301C533.3 301 506.7 301 480 301C453.3 301 426.7 301 400 301C373.3 301 346.7 301 320 301C293.3 301 266.7 301 240 301C213.3 301 186.7 301 160 301C133.3 301 106.7 301 80 301C53.3 301 26.7 301 13.3 301L0 301Z" fill="#121212"></path><path d="M0 253L13.3 252.3C26.7 251.7 53.3 250.3 80 251.5C106.7 252.7 133.3 256.3 160 258.7C186.7 261 213.3 262 240 262.3C266.7 262.7 293.3 262.3 320 261.3C346.7 260.3 373.3 258.7 400 258.3C426.7 258 453.3 259 480 259.7C506.7 260.3 533.3 260.7 560 261C586.7 261.3 613.3 261.7 640 260C666.7 258.3 693.3 254.7 720 255C746.7 255.3 773.3 259.7 800 259.3C826.7 259 853.3 254 880 253.3C906.7 252.7 933.3 256.3 946.7 258.2L960 260L960 301L946.7 301C933.3 301 906.7 301 880 301C853.3 301 826.7 301 800 301C773.3 301 746.7 301 720 301C693.3 301 666.7 301 640 301C613.3 301 586.7 301 560 301C533.3 301 506.7 301 480 301C453.3 301 426.7 301 400 301C373.3 301 346.7 301 320 301C293.3 301 266.7 301 240 301C213.3 301 186.7 301 160 301C133.3 301 106.7 301 80 301C53.3 301 26.7 301 13.3 301L0 301Z" fill="#212121"></path><path d="M0 269L13.3 271C26.7 273 53.3 277 80 278.2C106.7 279.3 133.3 277.7 160 277.2C186.7 276.7 213.3 277.3 240 276.3C266.7 275.3 293.3 272.7 320 271.8C346.7 271 373.3 272 400 272.2C426.7 272.3 453.3 271.7 480 272.2C506.7 272.7 533.3 274.3 560 274C586.7 273.7 613.3 271.3 640 270.3C666.7 269.3 693.3 269.7 720 269C746.7 268.3 773.3 266.7 800 267.5C826.7 268.3 853.3 271.7 880 273.5C906.7 275.3 933.3 275.7 946.7 275.8L960 276L960 301L946.7 301C933.3 301 906.7 301 880 301C853.3 301 826.7 301 800 301C773.3 301 746.7 301 720 301C693.3 301 666.7 301 640 301C613.3 301 586.7 301 560 301C533.3 301 506.7 301 480 301C453.3 301 426.7 301 400 301C373.3 301 346.7 301 320 301C293.3 301 266.7 301 240 301C213.3 301 186.7 301 160 301C133.3 301 106.7 301 80 301C53.3 301 26.7 301 13.3 301L0 301Z" fill="#212121"></path><path d="M0 287L13.3 284.8C26.7 282.7 53.3 278.3 80 278C106.7 277.7 133.3 281.3 160 281.8C186.7 282.3 213.3 279.7 240 278C266.7 276.3 293.3 275.7 320 277C346.7 278.3 373.3 281.7 400 282.8C426.7 284 453.3 283 480 281.8C506.7 280.7 533.3 279.3 560 278.7C586.7 278 613.3 278 640 278.2C666.7 278.3 693.3 278.7 720 278.2C746.7 277.7 773.3 276.3 800 276C826.7 275.7 853.3 276.3 880 277.8C906.7 279.3 933.3 281.7 946.7 282.8L960 284L960 301L946.7 301C933.3 301 906.7 301 880 301C853.3 301 826.7 301 800 301C773.3 301 746.7 301 720 301C693.3 301 666.7 301 640 301C613.3 301 586.7 301 560 301C533.3 301 506.7 301 480 301C453.3 301 426.7 301 400 301C373.3 301 346.7 301 320 301C293.3 301 266.7 301 240 301C213.3 301 186.7 301 160 301C133.3 301 106.7 301 80 301C53.3 301 26.7 301 13.3 301L0 301Z" fill="#121212"></path></svg>