<svg id="visual" viewBox="0 0 960 300" width="960" height="300" xmlns="http://www.w3.org/2000/svg" xmlns:xlink="http://www.w3.org/1999/xlink" version="1.1"><path d="M0 22L32 21.5C64 21 128 20 192 19.5C256 19 320 19 384 19C448 19 512 19 576 19C640 19 704 19 768 19.5C832 20 896 21 928 21.5L960 22L960 0L928 0C896 0 832 0 768 0C704 0 640 0 576 0C512 0 448 0 384 0C320 0 256 0 192 0C128 0 64 0 32 0L0 0Z" fill="#474747"></path><path d="M0 43L32 42.5C64 42 128 41 192 40C256 39 320 38 384 38.5C448 39 512 41 576 41C640 41 704 39 768 38C832 37 896 37 928 37L960 37L960 20L928 19.5C896 19 832 18 768 17.5C704 17 640 17 576 17C512 17 448 17 384 17C320 17 256 17 192 17.5C128 18 64 19 32 19.5L0 20Z" fill="#3e3e3e"></path><path d="M0 64L32 66C64 68 128 72 192 73C256 74 320 72 384 70C448 68 512 66 576 65C640 64 704 64 768 63C832 62 896 60 928 59L960 58L960 35L928 35C896 35 832 35 768 36C704 37 640 39 576 39C512 39 448 37 384 36.5C320 36 256 37 192 38C128 39 64 40 32 40.5L0 41Z" fill="#353535"></path><path d="M0 130L32 133.5C64 137 128 144 192 143.5C256 143 320 135 384 132.5C448 130 512 133 576 136C640 139 704 142 768 142C832 142 896 139 928 137.5L960 136L960 56L928 57C896 58 832 60 768 61C704 62 640 62 576 63C512 64 448 66 384 68C320 70 256 72 192 71C128 70 64 66 32 64L0 62Z" fill="#2c2c2c"></path><path d="M0 151L32 154.5C64 158 128 165 192 165C256 165 320 158 384 156.5C448 155 512 159 576 161.5C640 164 704 165 768 164C832 163 896 160 928 158.5L960 157L960 134L928 135.5C896 137 832 140 768 140C704 140 640 137 576 134C512 131 448 128 384 130.5C320 133 256 141 192 141.5C128 142 64 135 32 131.5L0 128Z" fill="#242424"></path><path d="M0 190L32 192.5C64 195 128 200 192 198.5C256 197 320 189 384 190.5C448 192 512 203 576 206C640 209 704 204 768 199.5C832 195 896 191 928 189L960 187L960 155L928 156.5C896 158 832 161 768 162C704 163 640 162 576 159.5C512 157 448 153 384 154.5C320 156 256 163 192 163C128 163 64 156 32 152.5L0 149Z" fill="#222222"></path><path d="M0 208L32 210.5C64 213 128 218 192 218C256 218 320 213 384 215C448 217 512 226 576 229.5C640 233 704 231 768 228C832 225 896 221 928 219L960 217L960 185L928 187C896 189 832 193 768 197.5C704 202 640 207 576 204C512 201 448 190 384 188.5C320 187 256 195 192 196.5C128 198 64 193 32 190.5L0 188Z" fill="#202020"></path><path d="M0 223L32 225.5C64 228 128 233 192 234C256 235 320 232 384 234.5C448 237 512 245 576 248.5C640 252 704 251 768 247C832 243 896 236 928 232.5L960 229L960 215L928 217C896 219 832 223 768 226C704 229 640 231 576 227.5C512 224 448 215 384 213C320 211 256 216 192 216C128 216 64 211 32 208.5L0 206Z" fill="#1e1e1e"></path><path d="M0 301L32 301C64 301 128 301 192 301C256 301 320 301 384 301C448 301 512 301 576 301C640 301 704 301 768 301C832 301 896 301 928 301L960 301L960 227L928 230.5C896 234 832 241 768 245C704 249 640 250 576 246.5C512 243 448 235 384 232.5C320 230 256 233 192 232C128 231 64 226 32 223.5L0 221Z" fill="#1c1c1c"></path></svg>